<svg width="36" height="36" viewBox="0 0 36 36" fill="none" xmlns="http://www.w3.org/2000/svg">
<path d="M7.214 22.804C8.414 26.402 15.61 30 21.607 30C27.604 30 33.576 27.477 33.576 23.879C33.576 22.68 24.006 24.003 18.009 21.604C14.668 20.268 8.414 16.806 7.214 18.006C6.014 19.206 7.214 22.804 7.214 22.804Z" fill="#A78E81"/>
<path d="M28.05 26C28.46 26.943 28.328 28.134 28.178 28.958C28.4687 28.86 28.7517 28.756 29.027 28.646C28.949 26.671 28.05 26 28.05 26ZM11.808 27.321C12.454 26.512 12.69 25.706 13.003 24.717C13.003 24.717 12.205 26.097 10.967 26.818C11.2383 26.99 11.5187 27.1577 11.808 27.321ZM17.84 26.068C17.578 27.253 16.277 28.231 15.245 28.848C15.755 29.0253 16.2727 29.1847 16.798 29.326C18.288 28.111 17.84 26.068 17.84 26.068ZM22.432 28.426C22.432 28.426 21.967 29.22 21.346 29.99C21.432 29.992 21.521 30 21.607 30C21.848 30 22.089 29.989 22.33 29.981C22.496 29.198 22.432 28.426 22.432 28.426ZM35.915 22.958C35.915 22.958 32.691 24.045 31.518 23.879C30.346 23.713 30.639 26.535 31.665 26C32.691 25.465 34.801 25.4 35.915 22.958ZM7.21399 18.006C7.21399 18.006 9.61299 14.408 15.985 15.852C20.808 16.945 25.205 20.405 31.202 19.205C31.202 19.205 30.377 24.247 20.782 24.247C11.187 24.247 5.30899 20.619 7.21399 18.006Z" fill="#846659"/>
<path d="M1.78901 21.604C4.84901 21.604 10.022 17.586 10 14.761C9.97701 11.701 5.89401 10.655 3.15701 12.024C0.420007 13.393 -0.948993 21.604 1.78901 21.604Z" fill="#A78E81"/>
<path d="M1.99995 14.5C1.91952 14.5001 1.84025 14.4808 1.76887 14.4437C1.6975 14.4066 1.63612 14.3529 1.58995 14.287C1.32695 13.911 0.383951 11.727 7.67895 5.629C7.78079 5.54387 7.91229 5.50268 8.0445 5.51449C8.17671 5.52631 8.29882 5.59016 8.38395 5.692C8.46909 5.79384 8.51028 5.92534 8.49846 6.05755C8.48665 6.18976 8.42279 6.31187 8.32095 6.397C1.87895 11.782 2.39895 13.699 2.40995 13.714C2.46222 13.789 2.49295 13.8768 2.4988 13.968C2.50465 14.0592 2.4854 14.1502 2.44314 14.2312C2.40088 14.3123 2.33722 14.3802 2.25909 14.4275C2.18095 14.4749 2.09133 14.5 1.99995 14.5ZM5.22895 31H2.89095C2.62574 31 2.37138 30.8946 2.18384 30.7071C1.99631 30.5196 1.89095 30.2652 1.89095 30C1.89095 29.7348 1.99631 29.4804 2.18384 29.2929C2.37138 29.1054 2.62574 29 2.89095 29H4.40095L8.90595 24.495C8.9988 24.4022 9.10902 24.3285 9.23033 24.2783C9.35163 24.228 9.48165 24.2022 9.61295 24.2022C9.74425 24.2022 9.87427 24.228 9.99558 24.2783C10.1169 24.3285 10.2271 24.4022 10.32 24.495C10.4128 24.5878 10.4864 24.6981 10.5367 24.8194C10.5869 24.9407 10.6128 25.0707 10.6128 25.202C10.6128 25.3333 10.5869 25.4633 10.5367 25.5846C10.4864 25.7059 10.4128 25.8162 10.32 25.909L5.22895 31ZM20.407 27.901C20.1543 27.901 19.9057 27.8371 19.6843 27.7154C19.4629 27.5936 19.2758 27.4179 19.1404 27.2046C19.0051 26.9912 18.9258 26.7471 18.91 26.4949C18.8942 26.2427 18.9423 25.9906 19.05 25.762L28.645 5.373C28.8224 5.02635 29.1276 4.76222 29.4961 4.63639C29.8646 4.51055 30.2676 4.53286 30.62 4.6986C30.9724 4.86434 31.2465 5.16054 31.3846 5.52465C31.5227 5.88877 31.5138 6.29228 31.36 6.65L21.766 27.04C21.6446 27.2978 21.4523 27.5156 21.2116 27.6681C20.971 27.8206 20.6919 27.9014 20.407 27.901Z" fill="#A78E81"/>
<path d="M19.844 27.812C22.469 28.562 26 26 27 22C28 18 27.969 13.625 28.969 11.625C29.969 9.625 28 10 26 13C24 16 19.844 27.812 19.844 27.812Z" fill="#A78E81"/>
<path d="M3.76206 15.489C6.41306 16.13 4.73906 19.161 3.07806 19.161C0.65906 19.161 0.87906 14.792 3.76206 15.489Z" fill="#292F33"/>
<path d="M34.89 31H31.958C31.7067 31.0001 31.4647 30.9056 31.2799 30.7353C31.0952 30.565 30.9813 30.3314 30.961 30.081L29.006 6.093C28.9845 5.82858 29.0689 5.56645 29.2407 5.36429C29.4125 5.16212 29.6575 5.03648 29.922 5.015C30.1864 4.99352 30.4485 5.07795 30.6507 5.24974C30.8528 5.42152 30.9785 5.66658 31 5.931L32.88 29H34.89C35.1552 29 35.4095 29.1054 35.5971 29.2929C35.7846 29.4804 35.89 29.7348 35.89 30C35.89 30.2652 35.7846 30.5196 35.5971 30.7071C35.4095 30.8946 35.1552 31 34.89 31ZM28.05 31H26C25.8573 31 25.7163 30.9695 25.5864 30.9105C25.4566 30.8515 25.3408 30.7654 25.247 30.658L18.936 23.446L15.103 27.123C14.9116 27.3067 14.6551 27.4068 14.39 27.4013C14.1248 27.3959 13.8726 27.2854 13.689 27.094C13.5053 26.9026 13.4052 26.6462 13.4106 26.381C13.416 26.1158 13.5266 25.8637 13.718 25.68L18.307 21.279C18.4039 21.1845 18.5193 21.1111 18.646 21.0634C18.7726 21.0158 18.9078 20.9948 19.043 21.002C19.315 21.014 19.571 21.137 19.752 21.343L26.454 29H28.05C28.3152 29 28.5695 29.1054 28.7571 29.2929C28.9446 29.4804 29.05 29.7348 29.05 30C29.05 30.2652 28.9446 30.5196 28.7571 30.7071C28.5695 30.8946 28.3152 31 28.05 31Z" fill="#CAB8AC"/>
</svg>
